<?xml version="1.0" encoding="utf-8"?>
<!-- Generator: Adobe Illustrator 16.0.4, SVG Export Plug-In . SVG Version: 6.00 Build 0)  -->
<!DOCTYPE svg PUBLIC "-//W3C//DTD SVG 1.1//EN" "http://www.w3.org/Graphics/SVG/1.1/DTD/svg11.dtd">
<svg version="1.1" id="Layer_1" xmlns="http://www.w3.org/2000/svg" xmlns:xlink="http://www.w3.org/1999/xlink" x="0px" y="0px"
	 width="79px" height="79px" viewBox="0 0 79 79" style="enable-background:new 0 0 79 79;" xml:space="preserve">
<style type="text/css">
<![CDATA[
	.st0{fill:#FFFFFF;}
]]>
</style>
<polygon class="st0" points="39.5,44.5 15,21.5 15,41.8 39.5,67.5 64,41.8 64,21.5 "/>
<g>
	<path class="st0" d="M39.5,3C59.6,3,76,19.4,76,39.5C76,59.6,59.6,76,39.5,76C19.4,76,3,59.6,3,39.5C3,19.4,19.4,3,39.5,3 M39.5,0
		C17.7,0,0,17.7,0,39.5S17.7,79,39.5,79S79,61.3,79,39.5S61.3,0,39.5,0L39.5,0z"/>
</g>
</svg>
