<?xml version="1.0" encoding="utf-8"?>
<!-- Generator: Adobe Illustrator 16.0.4, SVG Export Plug-In . SVG Version: 6.00 Build 0)  -->
<!DOCTYPE svg PUBLIC "-//W3C//DTD SVG 1.1//EN" "http://www.w3.org/Graphics/SVG/1.1/DTD/svg11.dtd">
<svg version="1.1" id="Layer_1" xmlns="http://www.w3.org/2000/svg" xmlns:xlink="http://www.w3.org/1999/xlink" x="0px" y="0px"
	 width="564.5px" height="144.4px" viewBox="0 0 564.5 144.4" style="enable-background:new 0 0 564.5 144.4;" xml:space="preserve"
	>
<style type="text/css">
<![CDATA[
	.st0{display:inline;fill:#222222;}
	.st1{fill:#222222;}
	.st2{fill-rule:evenodd;clip-rule:evenodd;fill:#FFF42A;}
	.st3{fill-rule:evenodd;clip-rule:evenodd;fill:#9E953C;}
	.st4{display:none;}
]]>
</style>
<polygon class="st2" points="0,144.4 163.1,144.4 163.1,78.1 0,78.1 31.7,111.3 "/>
<polygon class="st2" points="564.5,144.4 401.3,144.4 401.3,78.1 564.5,78.1 532.7,111.3 "/>
<polygon class="st3" points="163.1,78.1 151.4,66.4 88.3,66.4 100.1,78.2 "/>
<polygon class="st3" points="401.3,78.1 413.1,66.4 476.2,66.4 464.4,78.2 "/>
<rect x="88.3" class="st2" width="387.9" height="66.4"/>
<g class="st4">
	<path class="st0" d="M148.9,37.7c0,1-0.2,2-0.6,2.8c-0.4,0.8-1,1.5-1.7,2c-0.7,0.5-1.6,0.9-2.6,1.2c-1,0.3-2,0.4-3.1,0.4h-12V19.3
		h13.3c0.9,0,1.6,0.2,2.3,0.6c0.7,0.4,1.3,0.9,1.8,1.5c0.5,0.6,0.9,1.3,1.1,2c0.3,0.8,0.4,1.5,0.4,2.3c0,1.2-0.3,2.4-0.9,3.4
		c-0.6,1.1-1.5,1.8-2.7,2.4c1.4,0.4,2.5,1.2,3.4,2.3C148.5,34.7,148.9,36.1,148.9,37.7z M133.7,23.4v6.3h6.4c0.8,0,1.5-0.3,2.1-0.8
		s0.9-1.3,0.9-2.3c0-1-0.3-1.7-0.8-2.3c-0.5-0.6-1.2-0.8-1.9-0.8H133.7z M144,36.8c0-0.4-0.1-0.9-0.2-1.3c-0.2-0.4-0.4-0.8-0.6-1.1
		c-0.3-0.3-0.6-0.5-0.9-0.7c-0.4-0.2-0.7-0.3-1.2-0.3h-7.4v6.5h7.2c0.4,0,0.9-0.1,1.2-0.2c0.4-0.2,0.7-0.4,1-0.7
		c0.3-0.3,0.5-0.6,0.7-1C143.9,37.7,144,37.3,144,36.8z"/>
	<path class="st0" d="M169.9,39.9v4.2h-17.3V19.3h16.9v4.2h-12.1v6H168v3.9h-10.5v6.5H169.9z"/>
	<path class="st0" d="M171.7,31.5c0-1.5,0.3-3,0.8-4.5c0.5-1.5,1.3-2.8,2.4-4c1-1.2,2.3-2.1,3.8-2.8s3.2-1.1,5.2-1.1
		c2.3,0,4.3,0.5,5.9,1.5c1.7,1,2.9,2.3,3.7,3.9l-3.7,2.6c-0.3-0.7-0.7-1.3-1.2-1.8c-0.5-0.5-1-0.9-1.5-1.1c-0.5-0.3-1.1-0.5-1.7-0.6
		c-0.6-0.1-1.2-0.2-1.7-0.2c-1.2,0-2.3,0.2-3.2,0.7c-0.9,0.5-1.6,1.1-2.2,1.9c-0.6,0.8-1,1.7-1.3,2.7c-0.3,1-0.5,2-0.5,3
		c0,1.1,0.2,2.2,0.5,3.2c0.4,1,0.8,1.9,1.5,2.7c0.6,0.8,1.4,1.4,2.3,1.9c0.9,0.5,1.9,0.7,3,0.7c0.6,0,1.1-0.1,1.8-0.2
		c0.6-0.1,1.2-0.4,1.7-0.7c0.5-0.3,1.1-0.7,1.5-1.2c0.5-0.5,0.8-1.1,1.1-1.7l4,2.3c-0.4,0.9-1,1.8-1.7,2.5c-0.7,0.7-1.6,1.3-2.5,1.8
		c-0.9,0.5-1.9,0.9-3,1.1c-1.1,0.3-2.1,0.4-3.1,0.4c-1.8,0-3.4-0.4-4.9-1.1c-1.5-0.7-2.7-1.7-3.8-2.9c-1.1-1.2-1.9-2.6-2.5-4.1
		C172,34.7,171.7,33.1,171.7,31.5z"/>
	<path class="st0" d="M207.5,44.3c-1.8,0-3.5-0.4-5-1.1c-1.5-0.7-2.8-1.7-3.8-2.8c-1.1-1.2-1.9-2.5-2.5-4c-0.6-1.5-0.9-3.1-0.9-4.7
		c0-1.7,0.3-3.2,0.9-4.8c0.6-1.5,1.5-2.9,2.6-4c1.1-1.2,2.4-2.1,3.9-2.8c1.5-0.7,3.1-1,4.9-1c1.8,0,3.4,0.4,4.9,1.1
		c1.5,0.7,2.7,1.7,3.8,2.9c1,1.2,1.9,2.5,2.4,4.1c0.6,1.5,0.9,3.1,0.9,4.6c0,1.7-0.3,3.2-0.9,4.7c-0.6,1.5-1.4,2.8-2.5,4
		c-1.1,1.2-2.4,2.1-3.9,2.8C210.9,44,209.3,44.3,207.5,44.3z M200.3,31.7c0,1.1,0.2,2.1,0.5,3.1c0.3,1,0.8,1.9,1.4,2.7
		c0.6,0.8,1.4,1.4,2.3,1.9c0.9,0.5,1.9,0.7,3.1,0.7c1.2,0,2.2-0.2,3.1-0.7c0.9-0.5,1.7-1.1,2.3-1.9c0.6-0.8,1.1-1.7,1.4-2.7
		c0.3-1,0.5-2,0.5-3c0-1.1-0.2-2.1-0.5-3.1c-0.3-1-0.8-1.9-1.4-2.7c-0.6-0.8-1.4-1.4-2.3-1.8c-0.9-0.5-1.9-0.7-3-0.7
		c-1.2,0-2.2,0.2-3.1,0.7c-0.9,0.5-1.7,1.1-2.3,1.9c-0.6,0.8-1.1,1.7-1.4,2.7C200.5,29.7,200.3,30.7,200.3,31.7z"/>
	<path class="st0" d="M243.7,44.1V27.7l-6.4,12.2h-2.6l-6.4-12.2v16.5h-4.8V19.3h5.2l7.4,14.1l7.4-14.1h5.1v24.9H243.7z"/>
	<path class="st0" d="M270.9,39.9v4.2h-17.3V19.3h16.9v4.2h-12.1v6H269v3.9h-10.5v6.5H270.9z"/>
	<path class="st0" d="M289.1,19.3h4.3l9.5,24.9h-5l-2.3-6.2h-8.7l-2.3,6.2h-5L289.1,19.3z M294.7,34.6l-3.4-9.8l-3.6,9.8H294.7z"/>
	<path class="st0" d="M312.9,44.1V19.3h9c2,0,3.8,0.3,5.3,1c1.5,0.7,2.8,1.5,3.8,2.7c1,1.1,1.8,2.4,2.3,3.9c0.5,1.5,0.8,3.1,0.8,4.8
		c0,1.9-0.3,3.6-0.9,5.1c-0.6,1.5-1.4,2.8-2.5,3.9s-2.4,1.9-3.9,2.5c-1.5,0.6-3.2,0.9-5.1,0.9H312.9z M329.3,31.7
		c0-1.2-0.2-2.3-0.5-3.3c-0.3-1-0.8-1.9-1.4-2.6s-1.4-1.3-2.3-1.7c-0.9-0.4-2-0.6-3.1-0.6h-4.2v16.4h4.2c1.2,0,2.2-0.2,3.2-0.6
		c0.9-0.4,1.7-1,2.3-1.7c0.6-0.7,1.1-1.6,1.4-2.6C329.1,33.9,329.3,32.9,329.3,31.7z"/>
	<path class="st0" d="M348.5,44.3c-1.8,0-3.5-0.4-5-1.1c-1.5-0.7-2.8-1.7-3.8-2.8c-1.1-1.2-1.9-2.5-2.5-4c-0.6-1.5-0.9-3.1-0.9-4.7
		c0-1.7,0.3-3.2,0.9-4.8c0.6-1.5,1.5-2.9,2.6-4c1.1-1.2,2.4-2.1,3.9-2.8c1.5-0.7,3.1-1,4.9-1c1.8,0,3.4,0.4,4.9,1.1
		c1.5,0.7,2.7,1.7,3.8,2.9c1.1,1.2,1.9,2.5,2.5,4.1c0.6,1.5,0.9,3.1,0.9,4.6c0,1.7-0.3,3.2-0.9,4.7c-0.6,1.5-1.4,2.8-2.5,4
		c-1.1,1.2-2.4,2.1-3.9,2.8C351.9,44,350.3,44.3,348.5,44.3z M341.3,31.7c0,1.1,0.2,2.1,0.5,3.1c0.3,1,0.8,1.9,1.4,2.7
		s1.4,1.4,2.3,1.9c0.9,0.5,1.9,0.7,3.1,0.7c1.2,0,2.2-0.2,3.1-0.7c0.9-0.5,1.7-1.1,2.3-1.9c0.6-0.8,1.1-1.7,1.4-2.7
		c0.3-1,0.5-2,0.5-3c0-1.1-0.2-2.1-0.5-3.1c-0.3-1-0.8-1.9-1.4-2.7s-1.4-1.4-2.3-1.8c-0.9-0.5-1.9-0.7-3-0.7c-1.2,0-2.2,0.2-3.1,0.7
		c-0.9,0.5-1.7,1.1-2.3,1.9s-1.1,1.7-1.4,2.7C341.5,29.7,341.3,30.7,341.3,31.7z"/>
	<path class="st0" d="M369.2,28.2v15.9h-4.8V19.3h3.7l13,16.3V19.3h4.8v24.8H382L369.2,28.2z"/>
	<path class="st0" d="M401.7,44.3c-1.8,0-3.5-0.4-5-1.1c-1.5-0.7-2.8-1.7-3.8-2.8c-1.1-1.2-1.9-2.5-2.5-4c-0.6-1.5-0.9-3.1-0.9-4.7
		c0-1.7,0.3-3.2,0.9-4.8c0.6-1.5,1.5-2.9,2.6-4c1.1-1.2,2.4-2.1,3.9-2.8c1.5-0.7,3.1-1,4.9-1c1.8,0,3.4,0.4,4.9,1.1
		c1.5,0.7,2.7,1.7,3.8,2.9c1.1,1.2,1.9,2.5,2.5,4.1c0.6,1.5,0.9,3.1,0.9,4.6c0,1.7-0.3,3.2-0.9,4.7c-0.6,1.5-1.4,2.8-2.5,4
		c-1.1,1.2-2.4,2.1-3.9,2.8C405.1,44,403.4,44.3,401.7,44.3z M394.5,31.7c0,1.1,0.2,2.1,0.5,3.1c0.3,1,0.8,1.9,1.4,2.7
		s1.4,1.4,2.3,1.9c0.9,0.5,1.9,0.7,3.1,0.7c1.2,0,2.2-0.2,3.1-0.7c0.9-0.5,1.7-1.1,2.3-1.9c0.6-0.8,1.1-1.7,1.4-2.7
		c0.3-1,0.5-2,0.5-3c0-1.1-0.2-2.1-0.5-3.1c-0.3-1-0.8-1.9-1.4-2.7s-1.4-1.4-2.3-1.8c-0.9-0.5-1.9-0.7-3-0.7c-1.2,0-2.2,0.2-3.1,0.7
		c-0.9,0.5-1.7,1.1-2.3,1.9s-1.1,1.7-1.4,2.7C394.6,29.7,394.5,30.7,394.5,31.7z"/>
	<path class="st0" d="M417.5,44.1V19.3h11c1.1,0,2.2,0.2,3.2,0.7c1,0.5,1.8,1.1,2.5,1.9c0.7,0.8,1.2,1.7,1.6,2.7c0.4,1,0.6,2,0.6,3
		c0,1.6-0.4,3.1-1.2,4.4c-0.8,1.3-1.9,2.3-3.3,2.9l5.7,9.3h-5.4l-5.1-8.3h-4.8v8.3H417.5z M422.4,31.6h6.1c0.4,0,0.9-0.1,1.2-0.3
		c0.4-0.2,0.7-0.5,1-0.9s0.5-0.8,0.7-1.3c0.2-0.5,0.2-1,0.2-1.6c0-0.6-0.1-1.1-0.3-1.6c-0.2-0.5-0.4-0.9-0.8-1.3
		c-0.3-0.4-0.7-0.6-1.1-0.8c-0.4-0.2-0.8-0.3-1.2-0.3h-5.8V31.6z"/>
</g>
<g>
	<path class="st1" d="M164.4,37.7c0,1-0.2,2-0.6,2.8c-0.4,0.8-1,1.5-1.7,2c-0.7,0.5-1.6,0.9-2.6,1.2c-1,0.3-2,0.4-3.1,0.4h-12V19.3
		h13.3c0.9,0,1.6,0.2,2.3,0.6c0.7,0.4,1.3,0.9,1.8,1.5c0.5,0.6,0.9,1.3,1.1,2c0.3,0.8,0.4,1.5,0.4,2.3c0,1.2-0.3,2.4-0.9,3.4
		c-0.6,1.1-1.5,1.8-2.7,2.4c1.4,0.4,2.5,1.2,3.4,2.3C164,34.7,164.4,36.1,164.4,37.7z M149.2,23.4v6.3h6.4c0.8,0,1.5-0.3,2.1-0.8
		s0.9-1.3,0.9-2.3c0-1-0.3-1.7-0.8-2.3c-0.5-0.6-1.2-0.8-1.9-0.8H149.2z M159.6,36.8c0-0.4-0.1-0.9-0.2-1.3
		c-0.2-0.4-0.4-0.8-0.6-1.1c-0.3-0.3-0.6-0.5-0.9-0.7c-0.4-0.2-0.7-0.3-1.2-0.3h-7.4v6.5h7.2c0.4,0,0.9-0.1,1.2-0.2
		c0.4-0.2,0.7-0.4,1-0.7c0.3-0.3,0.5-0.6,0.7-1C159.5,37.7,159.6,37.3,159.6,36.8z"/>
	<path class="st1" d="M185.5,39.9v4.2h-17.3V19.3h16.9v4.2H173v6h10.5v3.9H173v6.5H185.5z"/>
	<path class="st1" d="M187.2,31.5c0-1.5,0.3-3,0.8-4.5c0.5-1.5,1.3-2.8,2.4-4c1-1.2,2.3-2.1,3.8-2.8s3.2-1.1,5.2-1.1
		c2.3,0,4.3,0.5,5.9,1.5c1.7,1,2.9,2.3,3.7,3.9l-3.7,2.6c-0.3-0.7-0.7-1.3-1.2-1.8c-0.5-0.5-1-0.9-1.5-1.1c-0.5-0.3-1.1-0.5-1.7-0.6
		c-0.6-0.1-1.2-0.2-1.7-0.2c-1.2,0-2.3,0.2-3.2,0.7c-0.9,0.5-1.6,1.1-2.2,1.9c-0.6,0.8-1,1.7-1.3,2.7c-0.3,1-0.5,2-0.5,3
		c0,1.1,0.2,2.2,0.5,3.2c0.4,1,0.8,1.9,1.5,2.7c0.6,0.8,1.4,1.4,2.3,1.9c0.9,0.5,1.9,0.7,3,0.7c0.6,0,1.1-0.1,1.8-0.2
		c0.6-0.1,1.2-0.4,1.7-0.7c0.5-0.3,1.1-0.7,1.5-1.2c0.5-0.5,0.8-1.1,1.1-1.7l4,2.3c-0.4,0.9-1,1.8-1.7,2.5c-0.7,0.7-1.6,1.3-2.5,1.8
		c-0.9,0.5-1.9,0.9-3,1.1c-1.1,0.3-2.1,0.4-3.1,0.4c-1.8,0-3.4-0.4-4.9-1.1c-1.5-0.7-2.7-1.7-3.8-2.9c-1.1-1.2-1.9-2.6-2.5-4.1
		C187.5,34.7,187.2,33.1,187.2,31.5z"/>
	<path class="st1" d="M223.1,44.3c-1.8,0-3.5-0.4-5-1.1c-1.5-0.7-2.8-1.7-3.8-2.8c-1.1-1.2-1.9-2.5-2.5-4c-0.6-1.5-0.9-3.1-0.9-4.7
		c0-1.7,0.3-3.2,0.9-4.8c0.6-1.5,1.5-2.9,2.6-4c1.1-1.2,2.4-2.1,3.9-2.8c1.5-0.7,3.1-1,4.9-1c1.8,0,3.4,0.4,4.9,1.1
		c1.5,0.7,2.7,1.7,3.8,2.9c1,1.2,1.9,2.5,2.4,4.1c0.6,1.5,0.9,3.1,0.9,4.6c0,1.7-0.3,3.2-0.9,4.7c-0.6,1.5-1.4,2.8-2.5,4
		c-1.1,1.2-2.4,2.1-3.9,2.8C226.5,44,224.8,44.3,223.1,44.3z M215.9,31.7c0,1.1,0.2,2.1,0.5,3.1c0.3,1,0.8,1.9,1.4,2.7
		c0.6,0.8,1.4,1.4,2.3,1.9c0.9,0.5,1.9,0.7,3.1,0.7c1.2,0,2.2-0.2,3.1-0.7c0.9-0.5,1.7-1.1,2.3-1.9c0.6-0.8,1.1-1.7,1.4-2.7
		c0.3-1,0.5-2,0.5-3c0-1.1-0.2-2.1-0.5-3.1c-0.3-1-0.8-1.9-1.4-2.7c-0.6-0.8-1.4-1.4-2.3-1.8c-0.9-0.5-1.9-0.7-3-0.7
		c-1.2,0-2.2,0.2-3.1,0.7c-0.9,0.5-1.7,1.1-2.3,1.9c-0.6,0.8-1.1,1.7-1.4,2.7C216,29.7,215.9,30.7,215.9,31.7z"/>
	<path class="st1" d="M259.2,44.1V27.7l-6.4,12.2h-2.6l-6.4-12.2v16.5h-4.8V19.3h5.2l7.4,14.1l7.4-14.1h5.1v24.9H259.2z"/>
	<path class="st1" d="M286.5,39.9v4.2h-17.3V19.3h16.9v4.2h-12.1v6h10.5v3.9h-10.5v6.5H286.5z"/>
	<path class="st1" d="M304.6,19.3h4.3l9.5,24.9h-5l-2.3-6.2h-8.7l-2.3,6.2h-5L304.6,19.3z M310.2,34.6l-3.4-9.8l-3.6,9.8H310.2z"/>
	<path class="st1" d="M349.3,19.3v24.9h-4.8V33.5h-11.3v10.6h-4.8V19.3h4.8v10h11.3v-10H349.3z"/>
	<path class="st1" d="M371.7,39.9v4.2h-17.3V19.3h16.9v4.2h-12.1v6h10.5v3.9h-10.5v6.5H371.7z"/>
	<path class="st1" d="M375.5,44.1V19.3h11c1.1,0,2.2,0.2,3.2,0.7c1,0.5,1.8,1.1,2.5,1.9c0.7,0.8,1.2,1.7,1.6,2.7c0.4,1,0.6,2,0.6,3
		c0,1.6-0.4,3.1-1.2,4.4c-0.8,1.3-1.9,2.3-3.3,2.9l5.7,9.3h-5.4l-5.1-8.3h-4.8v8.3H375.5z M380.3,31.6h6.1c0.4,0,0.9-0.1,1.2-0.3
		s0.7-0.5,1-0.9c0.3-0.4,0.5-0.8,0.7-1.3c0.2-0.5,0.2-1,0.2-1.6c0-0.6-0.1-1.1-0.3-1.6c-0.2-0.5-0.4-0.9-0.8-1.3
		c-0.3-0.4-0.7-0.6-1.1-0.8c-0.4-0.2-0.8-0.3-1.2-0.3h-5.8V31.6z"/>
	<path class="st1" d="M409.4,44.3c-1.8,0-3.5-0.4-5-1.1c-1.5-0.7-2.8-1.7-3.8-2.8c-1.1-1.2-1.9-2.5-2.5-4c-0.6-1.5-0.9-3.1-0.9-4.7
		c0-1.7,0.3-3.2,0.9-4.8c0.6-1.5,1.5-2.9,2.6-4c1.1-1.2,2.4-2.1,3.9-2.8c1.5-0.7,3.1-1,4.9-1c1.8,0,3.4,0.4,4.9,1.1
		c1.5,0.7,2.7,1.7,3.8,2.9c1.1,1.2,1.9,2.5,2.5,4.1c0.6,1.5,0.9,3.1,0.9,4.6c0,1.7-0.3,3.2-0.9,4.7c-0.6,1.5-1.4,2.8-2.5,4
		c-1.1,1.2-2.4,2.1-3.9,2.8C412.8,44,411.1,44.3,409.4,44.3z M402.2,31.7c0,1.1,0.2,2.1,0.5,3.1c0.3,1,0.8,1.9,1.4,2.7
		c0.6,0.8,1.4,1.4,2.3,1.9c0.9,0.5,1.9,0.7,3.1,0.7c1.2,0,2.2-0.2,3.1-0.7c0.9-0.5,1.7-1.1,2.3-1.9c0.6-0.8,1.1-1.7,1.4-2.7
		c0.3-1,0.5-2,0.5-3c0-1.1-0.2-2.1-0.5-3.1c-0.3-1-0.8-1.9-1.4-2.7c-0.6-0.8-1.4-1.4-2.3-1.8c-0.9-0.5-1.9-0.7-3-0.7
		c-1.2,0-2.2,0.2-3.1,0.7c-0.9,0.5-1.7,1.1-2.3,1.9c-0.6,0.8-1.1,1.7-1.4,2.7C402.3,29.7,402.2,30.7,402.2,31.7z"/>
</g>
</svg>
