<?xml version="1.0" encoding="utf-8"?>
<!-- Generator: Adobe Illustrator 16.0.4, SVG Export Plug-In . SVG Version: 6.00 Build 0)  -->
<!DOCTYPE svg PUBLIC "-//W3C//DTD SVG 1.1//EN" "http://www.w3.org/Graphics/SVG/1.1/DTD/svg11.dtd">
<svg version="1.1" id="Layer_1" xmlns="http://www.w3.org/2000/svg" xmlns:xlink="http://www.w3.org/1999/xlink" x="0px" y="0px"
	 width="263.2px" height="66.3px" viewBox="301.3 78.1 263.2 66.3" style="enable-background:new 301.3 78.1 263.2 66.3;"
	 xml:space="preserve">
<style type="text/css">
<![CDATA[
	.st0{fill:#7C1919;}
	.st1{fill:#FFFFFF;}
]]>
</style>
<polygon class="st0" points="333.1,111.3 301.3,78.1 564.5,78.1 564.5,144.4 301.3,144.4 "/>
<g>
	<path class="st1" d="M367.2,123.6V98.8h11c1.1,0,2.2,0.2,3.2,0.7c1,0.5,1.8,1.1,2.5,1.9c0.7,0.8,1.2,1.7,1.6,2.7c0.4,1,0.6,2,0.6,3
		c0,1.6-0.4,3.1-1.2,4.4c-0.8,1.3-1.9,2.3-3.3,2.9l5.7,9.3h-5.4l-5.1-8.3H372v8.3H367.2z M372,111.1h6.1c0.4,0,0.9-0.1,1.2-0.3
		s0.7-0.5,1-0.9c0.3-0.4,0.5-0.8,0.7-1.3c0.2-0.5,0.2-1,0.2-1.6c0-0.6-0.1-1.1-0.3-1.6c-0.2-0.5-0.4-0.9-0.8-1.3
		c-0.3-0.4-0.7-0.6-1.1-0.8c-0.4-0.2-0.8-0.3-1.2-0.3H372V111.1z"/>
	<path class="st1" d="M407.7,119.4v4.2h-17.3V98.8h16.9v4.2h-12.1v6h10.5v3.9h-10.5v6.5H407.7z"/>
	<path class="st1" d="M428.2,120.8c-2,2-4.3,3-6.9,3c-1.6,0-3.2-0.3-4.6-1c-1.4-0.7-2.7-1.6-3.7-2.7c-1.1-1.1-1.9-2.5-2.5-4
		c-0.6-1.6-0.9-3.2-0.9-5c0-1.7,0.3-3.3,0.9-4.8c0.6-1.5,1.5-2.8,2.6-4c1.1-1.1,2.4-2,3.8-2.7c1.5-0.7,3.1-1,4.8-1
		c2.3,0,4.3,0.5,6,1.5c1.7,1,2.9,2.3,3.8,4l-3.6,2.7c-0.6-1.2-1.5-2.2-2.6-2.8c-1.1-0.7-2.4-1-3.7-1c-1.1,0-2,0.2-2.9,0.7
		s-1.6,1-2.2,1.8c-0.6,0.8-1.1,1.7-1.4,2.7c-0.3,1-0.5,2.1-0.5,3.2c0,1.2,0.2,2.3,0.6,3.3c0.4,1,0.9,1.9,1.5,2.6
		c0.7,0.7,1.4,1.3,2.3,1.8s1.9,0.6,2.9,0.6c2.4,0,4.6-1.1,6.5-3.4v-1.8h-5v-3.5h9v12.8h-4V120.8z"/>
	<path class="st1" d="M436.3,123.6V98.8h4.8v24.8H436.3z"/>
	<path class="st1" d="M461.2,105.3c-0.2-0.2-0.5-0.4-0.9-0.7c-0.4-0.3-1-0.6-1.6-0.8s-1.3-0.5-2-0.7c-0.7-0.2-1.5-0.3-2.2-0.3
		c-1.3,0-2.3,0.2-3,0.7c-0.7,0.5-1,1.2-1,2.1c0,0.5,0.1,0.9,0.4,1.3c0.2,0.3,0.6,0.6,1.1,0.9c0.5,0.3,1.1,0.5,1.8,0.7
		c0.7,0.2,1.5,0.4,2.5,0.7c1.2,0.3,2.3,0.7,3.3,1c1,0.4,1.8,0.8,2.5,1.4c0.7,0.6,1.2,1.2,1.6,2c0.4,0.8,0.6,1.7,0.6,2.9
		c0,1.3-0.3,2.5-0.8,3.4s-1.2,1.7-2,2.3c-0.9,0.6-1.8,1-2.9,1.3c-1.1,0.3-2.3,0.4-3.5,0.4c-1.9,0-3.7-0.3-5.5-0.8
		c-1.8-0.6-3.5-1.4-4.9-2.4l2.1-4.2c0.2,0.2,0.6,0.5,1.1,0.8s1.2,0.7,1.9,1c0.7,0.3,1.6,0.6,2.5,0.9c0.9,0.2,1.8,0.4,2.8,0.4
		c2.7,0,4-0.9,4-2.6c0-0.5-0.2-1-0.5-1.4c-0.3-0.4-0.7-0.7-1.3-1c-0.6-0.3-1.2-0.5-2-0.8c-0.8-0.2-1.7-0.5-2.7-0.8
		c-1.2-0.3-2.2-0.7-3.1-1.1s-1.6-0.8-2.2-1.4c-0.6-0.5-1-1.1-1.3-1.8c-0.3-0.7-0.4-1.5-0.4-2.5c0-1.3,0.2-2.4,0.7-3.4
		c0.5-1,1.1-1.8,1.9-2.5c0.8-0.7,1.8-1.1,2.9-1.5c1.1-0.3,2.3-0.5,3.5-0.5c1.8,0,3.4,0.3,4.8,0.8c1.5,0.5,2.8,1.2,3.9,1.9
		L461.2,105.3z"/>
	<path class="st1" d="M486.2,103h-7.9v20.6h-4.8V103h-7.9v-4.2h20.7V103z"/>
	<path class="st1" d="M506.6,119.4v4.2h-17.3V98.8h16.9v4.2h-12.1v6h10.5v3.9h-10.5v6.5H506.6z"/>
	<path class="st1" d="M510.3,123.6V98.8h11c1.1,0,2.2,0.2,3.2,0.7c1,0.5,1.8,1.1,2.5,1.9c0.7,0.8,1.2,1.7,1.6,2.7c0.4,1,0.6,2,0.6,3
		c0,1.6-0.4,3.1-1.2,4.4c-0.8,1.3-1.9,2.3-3.3,2.9l5.7,9.3H525l-5.1-8.3h-4.8v8.3H510.3z M515.2,111.1h6.1c0.4,0,0.9-0.1,1.2-0.3
		s0.7-0.5,1-0.9c0.3-0.4,0.5-0.8,0.7-1.3c0.2-0.5,0.2-1,0.2-1.6c0-0.6-0.1-1.1-0.3-1.6c-0.2-0.5-0.4-0.9-0.8-1.3
		c-0.3-0.4-0.7-0.6-1.1-0.8c-0.4-0.2-0.8-0.3-1.2-0.3h-5.8V111.1z"/>
</g>
</svg>
