<?xml version="1.0" encoding="utf-8"?>
<!-- Generator: Adobe Illustrator 16.0.4, SVG Export Plug-In . SVG Version: 6.00 Build 0)  -->
<!DOCTYPE svg PUBLIC "-//W3C//DTD SVG 1.1//EN" "http://www.w3.org/Graphics/SVG/1.1/DTD/svg11.dtd">
<svg version="1.1" id="Layer_1" xmlns="http://www.w3.org/2000/svg" xmlns:xlink="http://www.w3.org/1999/xlink" x="0px" y="0px"
	 width="175.8px" height="51.6px" viewBox="0 0 175.8 51.6" enable-background="new 0 0 175.8 51.6" xml:space="preserve">
<g>
	<path fill="#EDEDED" d="M2.2,21.5V0.2h9c0.9,0,1.8,0.198,2.5,0.6c0.8,0.4,1.4,0.9,2,1.5c0.6,0.6,1,1.3,1.3,2.1
		C17.3,5.2,17.5,6,17.5,6.8S17.4,8.3,17.2,9c-0.2,0.7-0.6,1.398-1,1.898C15.8,11.5,15.3,12,14.7,12.3c-0.6,0.4-1.2,0.7-2,0.8
		l5.2,8.2h-2.4l-5-7.9H4.3v7.9H2.2V21.5z M4.3,11.7h7c0.6,0,1.2-0.102,1.7-0.4s0.9-0.6,1.3-1.1c0.4-0.5,0.6-1,0.8-1.602
		c0.2-0.6,0.3-1.2,0.3-1.8S15.2,5.6,15,5C14.8,4.4,14.5,3.9,14.1,3.5c-0.4-0.4-0.9-0.8-1.4-1S11.6,2,11,2H4.3V11.7z"/>
	<path fill="#EDEDED" d="M36.1,19.6v1.9H21.8V0.2h14V2H23.9v7.7h10.4v1.8H23.9v8.1H36.1z"/>
	<path fill="#EDEDED" d="M40,21.5V0.2h7.2c1.7,0,3.2,0.3,4.5,0.8C53,1.6,54,2.3,54.9,3.3c0.8,1,1.5,2.1,1.9,3.4
		c0.4,1.3,0.6,2.698,0.6,4.1c0,1.6-0.2,3.1-0.7,4.4c-0.5,1.3-1.2,2.398-2.1,3.398c-0.9,0.9-2,1.602-3.2,2.2
		c-1.3,0.5-2.7,0.8-4.2,0.8H40V21.5z M55.4,10.8c0-1.3-0.2-2.5-0.5-3.5c-0.4-1.1-0.9-2-1.6-2.8c-0.7-0.8-1.5-1.4-2.5-1.8
		c-1-0.4-2.2-0.602-3.5-0.602h-5.1V19.7h5.1c1.3,0,2.5-0.2,3.5-0.7c1-0.4,1.9-1.102,2.5-1.9c0.7-0.8,1.2-1.7,1.5-2.8
		C55.2,13.2,55.4,12,55.4,10.8z"/>
	<path fill="#EDEDED" d="M75.8,19.6v1.9H61.5V0.2h14V2H63.6v7.7H74v1.8H63.6v8.1H75.8z"/>
	<path fill="#EDEDED" d="M79.7,21.5V0.2h14V2H81.8v7.8h10v1.7h-10V21.4h-2.1V21.5L79.7,21.5z"/>
	<path fill="#EDEDED" d="M97.4,21.5V0.2h2.1v21.3H97.4z"/>
	<path fill="#EDEDED" d="M106.9,4.1v17.4h-2.1V0.2h1.6L120.5,17.9V0.2h2.102v21.3H120.8L106.9,4.1z"/>
	<path fill="#EDEDED" d="M128,21.5V0.2h2.102v21.3H128z"/>
	<path fill="#EDEDED" d="M137.5,4.1v17.4h-2.1V0.2h1.6L151.1,17.9V0.2h2.101v21.3H151.4L137.5,4.1z"/>
	<path fill="#EDEDED" d="M174,18.3c-2,2.2-4.299,3.3-6.799,3.3c-1.4,0-2.801-0.3-4-0.898C162,20.1,160.9,19.3,160,18.2
		c-0.898-1-1.6-2.2-2.1-3.5c-0.5-1.302-0.8-2.602-0.8-4c0-1.4,0.2-2.802,0.7-4.102S159,4.2,159.9,3.2s1.9-1.802,3.1-2.4
		c1.201-0.6,2.5-0.9,3.9-0.9c1,0,2,0.102,2.9,0.302c0.9,0.198,1.6,0.6,2.3,1c0.7,0.398,1.2,0.898,1.7,1.5
		c0.5,0.6,0.9,1.198,1.199,1.898L173.4,5.7c-0.699-1.302-1.6-2.302-2.699-2.9c-1.101-0.6-2.4-0.9-3.801-0.9
		c-1.199,0-2.199,0.302-3.199,0.802s-1.801,1.198-2.4,2c-0.699,0.8-1.199,1.8-1.5,2.898c-0.399,1.102-0.5,2.2-0.5,3.3
		c0,1.2,0.199,2.302,0.601,3.4s1,2,1.7,2.8c0.699,0.8,1.602,1.5,2.5,1.9c1,0.5,2,0.7,3.199,0.7s2.4-0.302,3.5-0.9
		c1.101-0.599,2.199-1.5,3.199-2.7v-3.5H169.3V11h6.5v10.5H174V18.3z"/>
	<path fill="#EDEDED" d="M17.3,32H9.7V51.4H7.6V32H0v-1.9h17.3V32z"/>
	<path fill="#EDEDED" d="M37.3,30.2v21.3h-2.1v-10H22.6v10h-2.1V30.2h2.1v9.5h12.6v-9.5H37.3z"/>
	<path fill="#EDEDED" d="M56.9,49.6v1.9H42.6V30.2h14V32H44.7v7.7h10.4v1.8H44.7v8.1H56.9z"/>
	<path fill="#EDEDED" d="M86,30.2v21.3h-4.1V42.4h-9.7V51.5h-4.1V30.2h4.1v8.6h9.7v-8.6H86z"/>
	<path fill="#EDEDED" d="M105.201,47.8v3.6H90.4V30.2h14.5v3.6H94.6v5.1h9v3.4h-9v5.6h10.601V47.8z"/>
	<path fill="#EDEDED" d="M108.4,51.5V30.2h9.4c1,0,1.9,0.198,2.699,0.6c0.801,0.4,1.5,1,2.101,1.6c0.601,0.7,1.101,1.4,1.399,2.302
		c0.301,0.898,0.5,1.698,0.5,2.6c0,1.4-0.299,2.6-1,3.8c-0.699,1.102-1.601,1.9-2.799,2.4l4.898,8H121L116.6,44.4H112.5V51.5H108.4z
		 M112.6,40.7h5.2c0.4,0,0.699-0.102,1.1-0.302c0.301-0.198,0.6-0.398,0.9-0.698c0.199-0.302,0.4-0.7,0.6-1.102
		c0.1-0.398,0.2-0.898,0.2-1.398s-0.101-1-0.2-1.4s-0.4-0.8-0.6-1.1c-0.301-0.302-0.6-0.5-0.9-0.7c-0.4-0.2-0.699-0.3-1.1-0.3h-5v7
		H112.6z"/>
	<path fill="#EDEDED" d="M137.5,51.6c-1.6,0-3-0.3-4.199-0.898C132,50.1,130.9,49.3,130,48.3c-0.898-1-1.6-2.2-2.1-3.5
		s-0.8-2.6-0.8-4s0.3-2.8,0.8-4.1c0.5-1.302,1.301-2.4,2.2-3.5c0.899-1,2-1.802,3.3-2.4c1.301-0.6,2.7-0.9,4.2-0.9
		s2.899,0.302,4.2,0.9c1.3,0.6,2.4,1.5,3.3,2.5s1.601,2.2,2.101,3.5s0.799,2.6,0.799,4s-0.299,2.8-0.799,4.1
		c-0.5,1.302-1.201,2.4-2.201,3.4c-0.898,1-2,1.8-3.299,2.4C140.4,51.3,139,51.6,137.5,51.6z M131.3,40.8c0,0.9,0.1,1.8,0.4,2.7
		C132,44.4,132.4,45.1,132.9,45.8s1.2,1.2,1.9,1.6c0.8,0.4,1.6,0.602,2.6,0.602s1.9-0.2,2.7-0.602c0.8-0.398,1.399-1,1.899-1.6
		s0.899-1.4,1.201-2.3c0.299-0.8,0.398-1.7,0.398-2.602c0-0.898-0.102-1.8-0.398-2.698C142.9,37.3,142.5,36.6,142,35.9
		c-0.5-0.698-1.199-1.198-1.898-1.6c-0.801-0.4-1.602-0.6-2.602-0.6S135.6,33.9,134.8,34.3c-0.801,0.4-1.4,1-1.9,1.6
		c-0.5,0.7-0.9,1.4-1.199,2.302C131.4,39.1,131.3,39.9,131.3,40.8z"/>
</g>
</svg>
