<?xml version="1.0" encoding="utf-8"?>
<!-- Generator: Adobe Illustrator 16.0.4, SVG Export Plug-In . SVG Version: 6.00 Build 0)  -->
<!DOCTYPE svg PUBLIC "-//W3C//DTD SVG 1.1//EN" "http://www.w3.org/Graphics/SVG/1.1/DTD/svg11.dtd">
<svg version="1.1" id="Layer_1" xmlns="http://www.w3.org/2000/svg" xmlns:xlink="http://www.w3.org/1999/xlink" x="0px" y="0px"
	 width="175.8px" height="51.6px" viewBox="0 0 175.8 51.6" style="enable-background:new 0 0 175.8 51.6;" xml:space="preserve">
<style type="text/css">
<![CDATA[
	.st0{fill:#FFFFFF;}
]]>
</style>
<g>
	<path class="st0" d="M2.2,21.5V0.2h9c0.9,0,1.8,0.2,2.5,0.6c0.8,0.4,1.4,0.9,2,1.5c0.6,0.6,1,1.3,1.3,2.1c0.3,0.8,0.5,1.6,0.5,2.4
		c0,0.8-0.1,1.5-0.3,2.2c-0.2,0.7-0.6,1.4-1,1.9c-0.4,0.6-0.9,1.1-1.5,1.4c-0.6,0.4-1.2,0.7-2,0.8l5.2,8.2h-2.4l-5-7.9H4.3v7.9H2.2z
		 M4.3,11.7h7c0.6,0,1.2-0.1,1.7-0.4c0.5-0.3,0.9-0.6,1.3-1.1c0.4-0.5,0.6-1,0.8-1.6c0.2-0.6,0.3-1.2,0.3-1.8S15.2,5.6,15,5
		c-0.2-0.6-0.5-1.1-0.9-1.5c-0.4-0.4-0.9-0.8-1.4-1S11.6,2,11,2H4.3V11.7z"/>
	<path class="st0" d="M36.1,19.6v1.9H21.8V0.2h14V2H23.9v7.7h10.4v1.8H23.9v8.1H36.1z"/>
	<path class="st0" d="M40,21.5V0.2h7.2c1.7,0,3.2,0.3,4.5,0.8C53,1.6,54,2.3,54.9,3.3c0.8,1,1.5,2.1,1.9,3.4
		c0.4,1.3,0.6,2.7,0.6,4.1c0,1.6-0.2,3.1-0.7,4.4c-0.5,1.3-1.2,2.4-2.1,3.4c-0.9,0.9-2,1.6-3.2,2.2c-1.3,0.5-2.7,0.8-4.2,0.8H40z
		 M55.4,10.8c0-1.3-0.2-2.5-0.5-3.5c-0.4-1.1-0.9-2-1.6-2.8c-0.7-0.8-1.5-1.4-2.5-1.8c-1-0.4-2.2-0.6-3.5-0.6h-5.1v17.6h5.1
		c1.3,0,2.5-0.2,3.5-0.7c1-0.4,1.9-1.1,2.5-1.9c0.7-0.8,1.2-1.7,1.5-2.8C55.2,13.2,55.4,12,55.4,10.8z"/>
	<path class="st0" d="M75.8,19.6v1.9H61.5V0.2h14V2H63.6v7.7H74v1.8H63.6v8.1H75.8z"/>
	<path class="st0" d="M79.7,21.5V0.2h14V2H81.8v7.8h10v1.7h-10v9.9H79.7z"/>
	<path class="st0" d="M97.4,21.5V0.2h2.1v21.3H97.4z"/>
	<path class="st0" d="M106.9,4.1v17.4h-2.1V0.2h1.6l14.1,17.7V0.2h2.1v21.3h-1.8L106.9,4.1z"/>
	<path class="st0" d="M128,21.5V0.2h2.1v21.3H128z"/>
	<path class="st0" d="M137.5,4.1v17.4h-2.1V0.2h1.6l14.1,17.7V0.2h2.1v21.3h-1.8L137.5,4.1z"/>
	<path class="st0" d="M174,18.3c-2,2.2-4.3,3.3-6.8,3.3c-1.4,0-2.8-0.3-4-0.9s-2.3-1.4-3.2-2.5c-0.9-1-1.6-2.2-2.1-3.5
		s-0.8-2.6-0.8-4c0-1.4,0.2-2.8,0.7-4.1c0.5-1.3,1.2-2.4,2.1-3.4c0.9-1,1.9-1.8,3.1-2.4c1.2-0.6,2.5-0.9,3.9-0.9c1,0,2,0.1,2.9,0.3
		c0.9,0.2,1.6,0.6,2.3,1c0.7,0.4,1.2,0.9,1.7,1.5c0.5,0.6,0.9,1.2,1.2,1.9l-1.6,1.1c-0.7-1.3-1.6-2.3-2.7-2.9
		c-1.1-0.6-2.4-0.9-3.8-0.9c-1.2,0-2.2,0.3-3.2,0.8c-1,0.5-1.8,1.2-2.4,2c-0.7,0.8-1.2,1.8-1.5,2.9c-0.4,1.1-0.5,2.2-0.5,3.3
		c0,1.2,0.2,2.3,0.6,3.4s1,2,1.7,2.8s1.6,1.5,2.5,1.9c1,0.5,2,0.7,3.2,0.7c1.2,0,2.4-0.3,3.5-0.9c1.1-0.6,2.2-1.5,3.2-2.7v-3.5h-4.7
		V11h6.5v10.5H174V18.3z"/>
	<path class="st0" d="M17.3,32H9.7v19.4H7.6V32H0v-1.9h17.3V32z"/>
	<path class="st0" d="M37.3,30.2v21.3h-2.1v-10H22.6v10h-2.1V30.2h2.1v9.5h12.6v-9.5H37.3z"/>
	<path class="st0" d="M56.9,49.6v1.9H42.6V30.2h14V32H44.7v7.7h10.4v1.8H44.7v8.1H56.9z"/>
	<path class="st0" d="M86,30.2v21.3h-4.1v-9.1h-9.7v9.1h-4.1V30.2h4.1v8.6h9.7v-8.6H86z"/>
	<path class="st0" d="M105.2,47.8v3.6H90.4V30.2h14.5v3.6H94.6v5.1h9v3.4h-9v5.6H105.2z"/>
	<path class="st0" d="M108.4,51.5V30.2h9.4c1,0,1.9,0.2,2.7,0.6c0.8,0.4,1.5,1,2.1,1.6c0.6,0.7,1.1,1.4,1.4,2.3
		c0.3,0.9,0.5,1.7,0.5,2.6c0,1.4-0.3,2.6-1,3.8c-0.7,1.1-1.6,1.9-2.8,2.4l4.9,8H121l-4.4-7.1h-4.1v7.1H108.4z M112.6,40.7h5.2
		c0.4,0,0.7-0.1,1.1-0.3c0.3-0.2,0.6-0.4,0.9-0.7c0.2-0.3,0.4-0.7,0.6-1.1c0.1-0.4,0.2-0.9,0.2-1.4c0-0.5-0.1-1-0.2-1.4
		s-0.4-0.8-0.6-1.1c-0.3-0.3-0.6-0.5-0.9-0.7c-0.4-0.2-0.7-0.3-1.1-0.3h-5V40.7z"/>
	<path class="st0" d="M137.5,51.6c-1.6,0-3-0.3-4.2-0.9c-1.3-0.6-2.4-1.4-3.3-2.4s-1.6-2.2-2.1-3.5c-0.5-1.3-0.8-2.6-0.8-4
		c0-1.4,0.3-2.8,0.8-4.1c0.5-1.3,1.3-2.4,2.2-3.5c0.9-1,2-1.8,3.3-2.4c1.3-0.6,2.7-0.9,4.2-0.9c1.5,0,2.9,0.3,4.2,0.9
		c1.3,0.6,2.4,1.5,3.3,2.5c0.9,1,1.6,2.2,2.1,3.5c0.5,1.3,0.8,2.6,0.8,4c0,1.4-0.3,2.8-0.8,4.1c-0.5,1.3-1.2,2.4-2.2,3.4
		c-0.9,1-2,1.8-3.3,2.4C140.4,51.3,139,51.6,137.5,51.6z M131.3,40.8c0,0.9,0.1,1.8,0.4,2.7c0.3,0.9,0.7,1.6,1.2,2.3
		c0.5,0.7,1.2,1.2,1.9,1.6c0.8,0.4,1.6,0.6,2.6,0.6c1,0,1.9-0.2,2.7-0.6c0.8-0.4,1.4-1,1.9-1.6s0.9-1.4,1.2-2.3
		c0.3-0.8,0.4-1.7,0.4-2.6c0-0.9-0.1-1.8-0.4-2.7c-0.3-0.9-0.7-1.6-1.2-2.3c-0.5-0.7-1.2-1.2-1.9-1.6c-0.8-0.4-1.6-0.6-2.6-0.6
		c-1,0-1.9,0.2-2.7,0.6c-0.8,0.4-1.4,1-1.9,1.6c-0.5,0.7-0.9,1.4-1.2,2.3C131.4,39.1,131.3,39.9,131.3,40.8z"/>
</g>
</svg>
