<?xml version="1.0" encoding="utf-8"?>
<!-- Generator: Adobe Illustrator 16.0.4, SVG Export Plug-In . SVG Version: 6.00 Build 0)  -->
<!DOCTYPE svg PUBLIC "-//W3C//DTD SVG 1.1//EN" "http://www.w3.org/Graphics/SVG/1.1/DTD/svg11.dtd">
<svg version="1.1" id="Layer_1" xmlns="http://www.w3.org/2000/svg" xmlns:xlink="http://www.w3.org/1999/xlink" x="0px" y="0px"
	 width="260.8px" height="212.1px" viewBox="0 0 260.8 212.1" style="enable-background:new 0 0 260.8 212.1;" xml:space="preserve"
	>
<path d="M111.3,55.9c13.5,1.3,26.3,1.9,38.9,4c62.3,10.2,105.6,57.7,110.3,121c0.6,7.8,0.4,15.6-0.3,23.4c-0.3,2.8-2.7,7.3-4.8,7.7
	c-2.6,0.5-6.4-1.8-8.8-3.9c-2.5-2.2-4.1-5.6-5.9-8.6c-22.9-40.2-58.1-60.5-103.6-64.2c-8.4-0.7-16.9-0.9-25.8-1.3
	c-0.1,2.5-0.3,4.3-0.3,6.1c0,13.3,0,26.7,0,40c0,6.2-2.3,9.1-8.4,10.2c-5.4,1-10.3-0.2-14.4-4C60.7,160.6,33.1,135,5.7,109.1
	C-2,101.8-1.8,90.7,6,83.3C33.9,57,61.9,30.9,90,4.8c2.2-2.1,5.3-3.6,8.2-4.4c7-1.9,12.8,2.9,12.7,10.1c0,13.8,0,27.7,0,41.5
	C111.1,53.3,111.2,54.7,111.3,55.9z"/>
</svg>
