<?xml version="1.0" encoding="utf-8"?>
<!-- Generator: Adobe Illustrator 16.0.4, SVG Export Plug-In . SVG Version: 6.00 Build 0)  -->
<!DOCTYPE svg PUBLIC "-//W3C//DTD SVG 1.1//EN" "http://www.w3.org/Graphics/SVG/1.1/DTD/svg11.dtd">
<svg version="1.1" id="Layer_1" xmlns="http://www.w3.org/2000/svg" xmlns:xlink="http://www.w3.org/1999/xlink" x="0px" y="0px"
	 width="260.8px" height="212.1px" viewBox="0 0 260.8 212.1" style="enable-background:new 0 0 260.8 212.1;" xml:space="preserve"
	>
<path d="M150,52c0-13.8,0-27.7,0-41.5c-0.1-7.2,5.7-12,12.7-10.1c2.9,0.8,6,2.3,8.2,4.4C199,30.9,227,57,254.9,83.3
	c7.8,7.4,8,18.5,0.3,25.8c-27.4,25.9-55,51.5-82.5,77.2c-4.1,3.8-9,5-14.4,4c-6.1-1.1-8.4-4-8.4-10.2c0-13.3,0-26.7,0-40
	c0-1.8-0.2-3.6-0.3-6.1c-8.9,0.4-17.4,0.6-25.8,1.3c-45.5,3.7-80.7,24-103.6,64.2c-1.8,3-3.4,6.4-5.9,8.6c-2.4,2.1-6.2,4.4-8.8,3.9
	c-2.1-0.4-4.5-4.9-4.8-7.7c-0.7-7.8-0.9-15.6-0.3-23.4c4.7-63.3,48-110.8,110.3-121c12.6-2.1,25.4-2.7,38.9-4
	C149.7,54.7,149.8,53.3,150,52z"/>
</svg>
